<?xml version="1.0" standalone="no"?>
<!DOCTYPE svg PUBLIC "-//W3C//DTD SVG 20010904//EN"
 "http://www.w3.org/TR/2001/REC-SVG-20010904/DTD/svg10.dtd">
<svg version="1.0" xmlns="http://www.w3.org/2000/svg"
 width="700.000000pt" height="700.000000pt" viewBox="0 0 700.000000 700.000000"
 preserveAspectRatio="xMidYMid meet">
<metadata>
Created by potrace 1.14, written by Peter Selinger 2001-2017
</metadata>
<g transform="translate(0.000000,700.000000) scale(0.100000,-0.100000)"
fill="#000000" stroke="none">
<path d="M1255 6284 c-210 -41 -415 -213 -504 -422 -52 -124 -51 -93 -51
-1662 0 -1569 -1 -1538 51 -1662 67 -157 190 -288 341 -362 151 -75 159 -76
864 -76 l614 0 0 -237 c0 -269 -9 -341 -50 -428 -76 -158 -211 -249 -396 -265
-103 -9 -156 -31 -199 -82 -41 -48 -57 -93 -56 -159 0 -67 22 -118 73 -166 70
-68 -44 -63 1560 -63 1394 0 1455 1 1493 19 83 39 136 123 136 216 0 60 -16
106 -56 153 -43 51 -96 73 -199 82 -50 5 -111 16 -136 24 -152 55 -273 203
-299 366 -6 36 -11 172 -11 303 l0 237 615 0 c660 0 701 3 820 53 154 65 286
189 359 339 81 165 76 63 76 1708 0 1645 5 1543 -76 1708 -96 196 -279 337
-491 378 -109 21 -4371 19 -4478 -2z m4433 -470 c49 -20 100 -70 123 -119 18
-38 19 -99 19 -1493 0 -1604 5 -1489 -63 -1561 -18 -18 -50 -42 -72 -52 -39
-18 -117 -19 -2195 -19 -2078 0 -2156 1 -2195 19 -22 10 -54 34 -72 52 -68 72
-63 -42 -63 1559 0 1601 -5 1487 63 1559 18 18 50 42 72 52 39 18 117 19 2193
19 1922 0 2157 -2 2190 -16z m-1718 -3997 c0 -346 14 -434 92 -589 l28 -58
-590 0 -590 0 30 60 c16 32 42 99 57 147 26 86 27 94 31 406 l3 317 470 0 469
0 0 -283z"/>
<path d="M2705 5111 c-56 -26 -799 -772 -820 -823 -21 -51 -19 -134 4 -183 26
-56 772 -799 823 -820 150 -61 318 52 318 215 0 101 -15 120 -323 422 l-282
277 287 288 c191 191 292 300 303 325 34 84 11 192 -56 255 -67 63 -173 82
-254 44z"/>
<path d="M4105 5111 c-49 -23 -99 -74 -119 -123 -20 -48 -20 -128 -1 -176 11
-25 112 -133 303 -324 l287 -288 -287 -287 c-191 -192 -292 -300 -303 -325
-34 -84 -11 -192 56 -255 67 -63 173 -82 254 -44 56 26 799 772 820 823 21 52
19 134 -6 188 -27 61 -751 783 -813 811 -53 24 -139 24 -191 0z"/>
</g>
</svg>
